# xmcd
#
# Track frame offsets: 
#        150
#        11914
#        22183
#        31956
#        42260
#        52758
#        65425
#        75801
#        87487
#        98005
#        109941
#        123012
#        136255
#        149155
#        161247
#        179570
#        196366
#        224837
#        253371
#        270337
#        289574
#        309723
#
# Disc length: 4563 seconds
#
# Revision: 1
# Processed by: cddbd v1.5.2PL0 Copyright (c) Steve Scherf et al.
# Submitted via: ExactAudioCopy v0.99pb4
#
DISCID=4611d116
DTITLE=Ray Charles - 17 Original Albums [CD2]
DYEAR=2015
DGENRE=Blues
TTITLE0=What Would I Do Without You 7''b Atlantic 45-1096 [a is Hallel
TTITLE0=ujah I Love Her So] 1956-01-16
TTITLE1=It's All Right 7''a Atlantic 45-1143 1956-11-27
TTITLE2=I Want To Know 7''a to Ain't That Love Atlantic 45-1124 1957
TTITLE3=Yes Indeed [Sy Oliver] 7''b Atlantic 45-1180 1958
TTITLE4=Get On The Right Track Baby [Titus Turner] 7''b Atlantic 45-11
TTITLE4=43 1956-11-27
TTITLE5=Talkin' 'Bout You 7''a Atlantic 45-1172 [Ray Charles With Orch
TTITLE5=estra And Chorus] [b=What Kind Of Man Are You] 1958
TTITLE6=Swanee River Rock (Talkin' Bout That River) US#34 7''a Atlanti
TTITLE6=c 45-1154 [Ray Charles With Chorus And Orchestra] 1957
TTITLE7=Lonely Avenue [Doc Pomus] 7''a Atlantic 45-1108 1956
TTITLE8=Blackjack 7''a to Greenbacks Atlantic 45-1076 [Ray Charles And
TTITLE8=His Band] 1955-10
TTITLE9=The Sun's Gonna Shine Again [Sam Sweet] 7''a Atlantic 45-984 [
TTITLE9=Ray Charles And His Orchestra] [b=Jumpin' In The Morning] 1953
TTITLE10=I Had A Dream 7''a Atlantic 45-1180 1958
TTITLE11=I Want A Little Girl 7''b Atlantic 45-1154 [Ray Charles With 
TTITLE11=Chorus And Orchestra] [b=Feelin' Sad] 1957
TTITLE12=Heartbreaker [Ertegun as Nugetre]) 7''a Atlantic 45-1008 [Ray
TTITLE12=Charles And His Orchestra] 1953
TTITLE13=Leave My Woman Alone 7''b Atlantic 45-1108 1956
TTITLE14=Night Time Is The Right Time (live)
TTITLE15=In A Little Spanish Town (live)
TTITLE16=I Got A Woman (live)
TTITLE17=Blues Waltz (live)
TTITLE18=Hot Rod (live)
TTITLE19=Talkin' 'Bout You (live)
TTITLE20=Sherry (live)
TTITLE21=A Fool For You (live)
EXTD=
EXTT0=
EXTT1=
EXTT2=
EXTT3=
EXTT4=
EXTT5=
EXTT6=
EXTT7=
EXTT8=
EXTT9=
EXTT10=
EXTT11=
EXTT12=
EXTT13=
EXTT14=
EXTT15=
EXTT16=
EXTT17=
EXTT18=
EXTT19=
EXTT20=
EXTT21=
PLAYORDER=
